#N canvas 1559 174 1093 754 10;
#X declare -path ggee;
#X obj 7 8 declare -path ggee;
#X obj 32 37 notein;
#X floatatom 107 224 5 0 0 0 - - - 0;
#X obj 107 243 mtof;
#X floatatom 107 264 8 0 0 0 - - - 0;
#X obj 107 169 loadbang;
#X msg 107 190 60;
#X text 142 190 60 = MIDI middle C;
#X floatatom 38 242 5 0 0 0 - - - 0;
#X floatatom 38 324 5 0 0 0 - - - 0;
#X obj 38 303 expr $f2/$f1;
#X text 76 323 playback rate;
#X obj 38 274 mtof;
#X obj 220 341 * 1;
#X obj 220 440 vline~;
#X obj 220 464 tabread4~ sampler;
#X obj 222 639 dac~;
#X obj 220 366 pack f f;
#X msg 266 413 0;
#X msg 220 412 \$2 \$1;
#X obj 220 389 t l b;
#X obj 317 348 r size;
#X obj 244 305 r length;
#N canvas 0 0 450 300 (subpatch) 0;
#X array sampler 96000 float 2;
#X coords 0 1 96000 -1 200 140 1;
#X restore 346 493 graph;
#X obj 222 595 *~;
#N canvas 198 137 1337 879 padcontrol 0;
#X obj 447 25 notein;
#X obj 15 137 bng 18 250 50 0 empty empty empty 0 -9 0 10 #fcfcfc #000000 #000000;
#X obj 15 196 shell;
#X obj 15 99 sel 36;
#X msg 15 163 ./rtl_synth/record_rtl.sh pad1;
#X obj 213 155 delay 5000;
#X obj 356 131 bng 18 250 50 0 empty empty empty 0 -9 0 10 #fcfcfc #000000 #000000;
#X obj 551 177 bng 18 250 50 0 empty empty empty 0 -9 0 10 #fcfcfc #000000 #000000;
#X obj 551 149 delay 5000;
#X obj 356 92 sel 37;
#X obj 214 249 soundfiler;
#X floatatom 214 278 7 0 0 0 - - - 12;
#X obj 230 313 / 44.1;
#X floatatom 230 339 5 0 0 0 - - - 0;
#X obj 230 364 s length;
#X obj 181 313 s size;
#X msg 214 220 read -resize ../rtl_synth/recordings/pad1.wav sampler;
#X obj 213 187 bng 18 250 50 0 empty empty empty 0 -9 0 10 #fcfcfc #000000 #000000;
#X obj 551 238 soundfiler;
#X floatatom 551 267 7 0 0 0 - - - 12;
#X obj 567 302 / 44.1;
#X floatatom 567 328 5 0 0 0 - - - 0;
#X obj 567 354 s length;
#X obj 518 302 s size;
#X msg 551 209 read -resize ../rtl_synth/recordings/pad2.wav sampler;
#X obj 356 190 shell;
#X obj 691 119 bng 18 250 50 0 empty empty empty 0 -9 0 10 #fcfcfc #000000 #000000;
#X obj 886 165 bng 18 250 50 0 empty empty empty 0 -9 0 10 #fcfcfc #000000 #000000;
#X obj 886 137 delay 5000;
#X obj 886 226 soundfiler;
#X floatatom 886 255 7 0 0 0 - - - 12;
#X obj 902 290 / 44.1;
#X floatatom 902 316 5 0 0 0 - - - 0;
#X obj 902 342 s length;
#X obj 853 290 s size;
#X obj 691 178 shell;
#X obj 1039 101 bng 18 250 50 0 empty empty empty 0 -9 0 10 #fcfcfc #000000 #000000;
#X obj 1234 147 bng 18 250 50 0 empty empty empty 0 -9 0 10 #fcfcfc #000000 #000000;
#X obj 1234 119 delay 5000;
#X obj 1234 208 soundfiler;
#X floatatom 1234 237 7 0 0 0 - - - 12;
#X obj 1250 272 / 44.1;
#X floatatom 1250 298 5 0 0 0 - - - 0;
#X obj 1250 324 s length;
#X obj 1201 272 s size;
#X obj 1039 160 shell;
#X obj 583 398 notein;
#X obj 410 488 bng 18 250 50 0 empty empty empty 0 -9 0 10 #fcfcfc #000000 #000000;
#X obj 74 549 soundfiler;
#X floatatom 74 578 7 0 0 0 - - - 12;
#X obj 90 613 / 44.1;
#X floatatom 90 639 5 0 0 0 - - - 0;
#X obj 90 665 s length;
#X obj 41 613 s size;
#X msg 74 520 read -resize ../rtl_synth/recordings/pad1.wav sampler;
#X obj 73 487 bng 18 250 50 0 empty empty empty 0 -9 0 10 #fcfcfc #000000 #000000;
#X obj 410 549 soundfiler;
#X floatatom 410 578 7 0 0 0 - - - 12;
#X obj 426 613 / 44.1;
#X floatatom 426 639 5 0 0 0 - - - 0;
#X obj 426 665 s length;
#X obj 377 613 s size;
#X msg 410 520 read -resize ../rtl_synth/recordings/pad2.wav sampler;
#X obj 747 488 bng 18 250 50 0 empty empty empty 0 -9 0 10 #fcfcfc #000000 #000000;
#X obj 747 549 soundfiler;
#X floatatom 747 578 7 0 0 0 - - - 12;
#X obj 763 613 / 44.1;
#X floatatom 763 639 5 0 0 0 - - - 0;
#X obj 763 665 s length;
#X obj 714 613 s size;
#X obj 1083 487 bng 18 250 50 0 empty empty empty 0 -9 0 10 #fcfcfc #000000 #000000;
#X obj 1083 548 soundfiler;
#X floatatom 1083 577 7 0 0 0 - - - 12;
#X obj 1099 612 / 44.1;
#X floatatom 1099 638 5 0 0 0 - - - 0;
#X obj 1099 664 s length;
#X obj 1050 612 s size;
#X obj 691 80 sel 38;
#X msg 886 197 read -resize ../rtl_synth/recordings/pad3.wav sampler;
#X msg 691 148 ./rtl_synth/record_rtl.sh pad3;
#X msg 356 160 ./rtl_synth/record_rtl.sh pad2;
#X msg 1039 130 ./rtl_synth/record_rtl.sh pad4;
#X msg 1234 179 read -resize ../rtl_synth/recordings/pad4.wav sampler;
#X text 497 9 pads1-4 \, initialize recording/ sel for playback;
#X text 642 395 pads5-8 \, select recordings made from pads1-4;
#X obj 73 456 sel 40;
#X obj 410 460 sel 41;
#X obj 747 462 sel 42;
#X obj 1039 62 sel 39;
#X obj 1083 460 sel 43;
#X msg 747 520 read -resize ../rtl_synth/recordings/pad3.wav sampler;
#X msg 1083 519 read -resize ../rtl_synth/recordings/pad4.wav sampler;
#X connect 0 0 3 0;
#X connect 0 0 9 0;
#X connect 0 0 77 0;
#X connect 0 0 88 0;
#X connect 1 0 5 0;
#X connect 1 0 4 0;
#X connect 3 0 1 0;
#X connect 4 0 2 0;
#X connect 5 0 17 0;
#X connect 6 0 8 0;
#X connect 6 0 80 0;
#X connect 7 0 24 0;
#X connect 8 0 7 0;
#X connect 9 0 6 0;
#X connect 10 0 11 0;
#X connect 11 0 12 0;
#X connect 11 0 15 0;
#X connect 12 0 13 0;
#X connect 13 0 14 0;
#X connect 16 0 10 0;
#X connect 17 0 16 0;
#X connect 18 0 19 0;
#X connect 19 0 20 0;
#X connect 19 0 23 0;
#X connect 20 0 21 0;
#X connect 21 0 22 0;
#X connect 24 0 18 0;
#X connect 26 0 28 0;
#X connect 26 0 79 0;
#X connect 27 0 78 0;
#X connect 28 0 27 0;
#X connect 29 0 30 0;
#X connect 30 0 31 0;
#X connect 30 0 34 0;
#X connect 31 0 32 0;
#X connect 32 0 33 0;
#X connect 36 0 38 0;
#X connect 36 0 81 0;
#X connect 37 0 82 0;
#X connect 38 0 37 0;
#X connect 39 0 40 0;
#X connect 40 0 41 0;
#X connect 40 0 44 0;
#X connect 41 0 42 0;
#X connect 42 0 43 0;
#X connect 46 0 85 0;
#X connect 46 0 86 0;
#X connect 46 0 87 0;
#X connect 46 0 89 0;
#X connect 47 0 62 0;
#X connect 48 0 49 0;
#X connect 49 0 50 0;
#X connect 49 0 53 0;
#X connect 50 0 51 0;
#X connect 51 0 52 0;
#X connect 54 0 48 0;
#X connect 55 0 54 0;
#X connect 56 0 57 0;
#X connect 57 0 58 0;
#X connect 57 0 61 0;
#X connect 58 0 59 0;
#X connect 59 0 60 0;
#X connect 62 0 56 0;
#X connect 63 0 90 0;
#X connect 64 0 65 0;
#X connect 65 0 66 0;
#X connect 65 0 69 0;
#X connect 66 0 67 0;
#X connect 67 0 68 0;
#X connect 70 0 91 0;
#X connect 71 0 72 0;
#X connect 72 0 73 0;
#X connect 72 0 76 0;
#X connect 73 0 74 0;
#X connect 74 0 75 0;
#X connect 77 0 26 0;
#X connect 78 0 29 0;
#X connect 79 0 35 0;
#X connect 80 0 25 0;
#X connect 81 0 45 0;
#X connect 82 0 39 0;
#X connect 85 0 55 0;
#X connect 86 0 47 0;
#X connect 87 0 63 0;
#X connect 88 0 36 0;
#X connect 89 0 70 0;
#X connect 90 0 64 0;
#X connect 91 0 71 0;
#X restore 133 8 pd padcontrol;
#N canvas 2216 283 685 670 knobcontrol 0;
#X obj 17 22 ctlin 70;
#X obj 17 50 vsl 16 136 0 127 0 0 empty empty empty 0 -9 0 10 #fcfcfc #000000 #000000 0 1;
#X text 52 48 k1 (velocity);
#X obj 17 231 s k1;
#X obj 165 21 ctlin 71;
#X obj 165 74 vsl 16 136 0 2176 0 0 empty empty empty 0 -9 0 10 #fcfcfc #000000 #000000 0 1;
#X text 202 49 k2 (duration);
#X obj 165 226 s k2;
#X obj 165 46 * 24;
#X obj 308 76 vsl 16 136 0 2176 0 0 empty empty empty 0 -9 0 10 #fcfcfc #000000 #000000 0 1;
#X obj 308 23 ctlin 72;
#X obj 308 48 * 75;
#X obj 308 228 s k3;
#X obj 17 200 / 100;
#X text 345 51 k3 (hpf);
#X connect 0 0 1 0;
#X connect 1 0 13 0;
#X connect 4 0 8 0;
#X connect 5 0 7 0;
#X connect 8 0 5 0;
#X connect 9 0 12 0;
#X connect 10 0 11 0;
#X connect 11 0 9 0;
#X connect 13 0 3 0;
#X restore 224 8 pd knobcontrol;
#X obj 267 555 r k1;
#X obj 235 280 r k2;
#X obj 225 502 r k3;
#X obj 181 542 hip~ \$2;
#X obj 54 5797 rzero_rev~;
#X obj 64 5807 rzero_rev~;
#X obj 32 72 stripnote;
#X floatatom 32 112 5 0 0 0 - - - 0;
#X obj 32 173 sel 0;
#X floatatom 59 202 5 0 0 0 - - - 0;
#X obj 32 140 expr if($f1>=48 && $f1 <=72 \, $f1 \, 0);
#X connect 1 0 33 0;
#X connect 1 1 33 1;
#X connect 2 0 3 0;
#X connect 3 0 4 0;
#X connect 4 0 10 1;
#X connect 5 0 6 0;
#X connect 6 0 2 0;
#X connect 8 0 12 0;
#X connect 9 0 13 0;
#X connect 10 0 9 0;
#X connect 12 0 10 0;
#X connect 13 0 17 0;
#X connect 14 0 15 0;
#X connect 15 0 30 0;
#X connect 17 0 20 0;
#X connect 18 0 14 0;
#X connect 19 0 14 0;
#X connect 20 0 19 0;
#X connect 20 1 18 0;
#X connect 21 0 17 1;
#X connect 22 0 13 1;
#X connect 24 0 16 0;
#X connect 27 0 24 1;
#X connect 28 0 13 1;
#X connect 29 0 30 1;
#X connect 30 0 24 0;
#X connect 33 0 34 0;
#X connect 34 0 37 0;
#X connect 35 1 36 0;
#X connect 36 0 8 0;
#X connect 37 0 35 0;
#X coords 0 0 0.5 0.5 0 0 0;
