#N canvas 1032 125 1639 930 10;
#X declare -path ggee;
#X obj 9 8 notein;
#X floatatom 9 85 5 0 0 0 - - - 0;
#X floatatom 29 60 5 0 0 0 - - - 0;
#X floatatom 44 38 5 0 0 0 - - - 0;
#X obj 26 131 notein;
#X obj 26 207 bng 18 250 50 0 empty empty empty 0 -9 0 10 #fcfcfc #000000 #000000;
#X obj 99 9 declare -path ggee;
#X obj 13 266 shell;
#X obj 26 169 sel 36;
#X msg 13 233 ./rtl_synth/record_rtl.sh pad1;
#X obj 211 253 bng 18 250 50 0 empty empty empty 0 -9 0 10 #fcfcfc #000000 #000000;
#X obj 211 225 delay 5000;
#X msg 211 278 open /rtl_synth/recordings/pad1.wav;
#X connect 0 0 1 0;
#X connect 0 1 2 0;
#X connect 0 2 3 0;
#X connect 4 0 8 0;
#X connect 5 0 9 0;
#X connect 5 0 11 0;
#X connect 8 0 5 0;
#X connect 9 0 7 0;
#X connect 10 0 12 0;
#X connect 11 0 10 0;
#X coords 0 0 0.5 0.5 0 0 0;
